<svg t="1744278213599" class="icon" viewBox="0 0 1024 1024" version="1.1" xmlns="http://www.w3.org/2000/svg" p-id="6401" width="16" height="16"><path d="M791.04 0A232.96 232.96 0 0 1 1024 232.96v430.912a232.96 232.96 0 0 1-232.96 232.96H379.712a398.08 398.08 0 0 0-247.424 86.208l-11.776 9.344A74.304 74.304 0 0 1 0 934.144V232.96A232.96 232.96 0 0 1 232.96 0zM508.992 256.704a49.28 49.28 0 0 0-49.28 49.28v105.472H354.24a49.28 49.28 0 0 0-48.832 42.56l-0.448 6.72c0 27.2 22.08 49.216 49.28 49.216l105.472-0.064v105.6c0 24.96 18.56 45.504 42.56 48.768l6.72 0.448a49.28 49.28 0 0 0 49.28-49.216l-0.064-105.6h105.6a49.28 49.28 0 0 0 48.704-42.496l0.448-6.656a49.28 49.28 0 0 0-49.216-49.28H558.208V305.92a49.28 49.28 0 0 0-42.56-48.768z" p-id="6402" fill="#945cf9" data-spm-anchor-id="a313x.search_index.0.i9.53483a81hxcoqp" class=""></path></svg>